{"title":"Madonna - Celebration (Benny Benassi Version) [HD 720p]","uid":5077876,"size":60931424,"categoryP":"video","categoryS":"music_videos","magnet":"?xt=urn:btih:e5179bcf4c0a8602948c627b1afabfd81eb48b2c&amp;dn=Madonna+-+Celebration+%28Benny+Benassi+Version%29+%5BHD+720p%5D&amp;tr=udp%3A%2F%2Ftracker.openbittorrent.com%3A80&amp;tr=udp%3A%2F%2Fopen.demonii.com%3A1337&amp;tr=udp%3A%2F%2Ftracker.coppersurfer.tk%3A6969&amp;tr=udp%3A%2F%2Fexodus.desync.com%3A6969","seeders":1,"leechers":0,"uploader":"coolkol","files":1,"time":1252020203,"description":"--------------------\n[File Info]\n--------------------\nMadonna - Celebration (Benny Benassi Version).flv\n  General\n    Complete name : Madonna - Celebration (Benny Benassi Version).flv\n    Format : MPEG-4\n    Format profile : Base Media / Version 2\n    Codec ID : mp42\n    File size : 58.1 MiB\n    Duration : 3mn 41s\n    Overall bit rate : 2 199 Kbps\n    Encoded date : UTC 2009-09-01 09:53:52\n    Tagged date : UTC 2009-09-01 09:53:52\n  Video #2\n    Format : AVC\n    Format/Info : Advanced Video Codec\n    Format profile : &lt;a class=&quot;__cf_email__&quot; href=&quot;/cdn-cgi/l/email-protection&quot; data-cfemail=&quot;743c1d131c3438475a45&quot;&gt;[email&amp;#160;protected]&lt;/a&gt;&lt;script cf-hash='f9e31' type=&quot;text/javascript&quot;&gt;\n/* &lt;![CDATA[ */!function(){try{var t=&quot;currentScript&quot;in document?document.currentScript:function(){for(var t=document.getElementsByTagName(&quot;script&quot;),e=t.length;e--;)if(t[e].getAttribute(&quot;cf-hash&quot;))return t[e]}();if(t&amp;&amp;t.previousSibling){var e,r,n,i,c=t.previousSibling,a=c.getAttribute(&quot;data-cfemail&quot;);if(a){for(e=&quot;&quot;,r=parseInt(a.substr(0,2),16),n=2;a.length-n;n+=2)i=parseInt(a.substr(n,2),16)^r,e+=String.fromCharCode(i);e=document.createTextNode(e),c.parentNode.replaceChild(e,c)}}}catch(u){}}();/* ]]&gt; */&lt;/script&gt;\n    Format settings, CABAC : Yes\n    Format settings, ReFrames : 3 frames\n    Codec ID : avc1\n    Codec ID/Info : Advanced Video Coding\n    Duration : 3mn 41s\n    Bit rate mode : Variable\n    Bit rate : 2 077 Kbps\n    Maximum bit rate : 4 260 Kbps\n    Width : 1 280 pixels\n    Height : 720 pixels\n    Display aspect ratio : 16/9\n    Frame rate mode : Constant\n    Frame rate : 25.000 fps\n    Resolution : 24 bits\n    Colorimetry : 4:2:0\n    Scan type : Progressive\n    Bits/(Pixel*Frame) : 0.090\n    Stream size : 54.7 MiB (94%)\n    Title : (C) 2007 Google Inc. v08.13.2007.\n    Encoded date : UTC 2009-09-01 09:53:53\n    Tagged date : UTC 2009-09-01 09:53:55\n  Audio #1\n    Format : AAC\n    Format/Info : Advanced Audio Codec\n    Format version : Version 4\n    Format profile : LC\n    Format settings, SBR : No\n    Codec ID : 40\n    Duration : 3mn 41s\n    Bit rate mode : Variable\n    Bit rate : 125 Kbps\n    Maximum bit rate : 192 Kbps\n    Channel(s) : 2 channels\n    Channel positions : L R\n    Sampling rate : 44.1 KHz\n    Resolution : 16 bits\n    Stream size : 3.30 MiB (6%)\n    Title : (C) 2007 Google Inc. v08.13.2007.\n    Encoded date : UTC 2009-09-01 09:53:52\n    Tagged date : UTC 2009-09-01 09:53:55","torrent":{"xt":"urn:btih:e5179bcf4c0a8602948c627b1afabfd81eb48b2c","amp;dn":"Madonna+-+Celebration+%28Benny+Benassi+Version%29+%5BHD+720p%5D","amp;tr":["udp%3A%2F%2Ftracker.openbittorrent.com%3A80","udp%3A%2F%2Fopen.demonii.com%3A1337","udp%3A%2F%2Ftracker.coppersurfer.tk%3A6969","udp%3A%2F%2Fexodus.desync.com%3A6969"],"infoHash":"e5179bcf4c0a8602948c627b1afabfd81eb48b2c","infoHashBuffer":{"type":"Buffer","data":[229,23,155,207,76,10,134,2,148,140,98,123,26,250,191,216,30,180,139,44]},"announce":[],"urlList":[]}}